<svg width="24" height="24" viewBox="0 0 24 24" fill="none" xmlns="http://www.w3.org/2000/svg">
<g clip-path="url(#clip0_4357_57034)">
<path d="M21.1744 10.0144C20.8209 9.645 20.4553 9.26438 20.3175 8.92969C20.19 8.62313 20.1825 8.115 20.175 7.62281C20.1609 6.70781 20.1459 5.67094 19.425 4.95C18.7041 4.22906 17.6672 4.21406 16.7522 4.2C16.26 4.1925 15.7519 4.185 15.4453 4.0575C15.1116 3.91969 14.73 3.55406 14.3606 3.20062C13.7137 2.57906 12.9788 1.875 12 1.875C11.0212 1.875 10.2872 2.57906 9.63937 3.20062C9.27 3.55406 8.88938 3.91969 8.55469 4.0575C8.25 4.185 7.74 4.1925 7.24781 4.2C6.33281 4.21406 5.29594 4.22906 4.575 4.95C3.85406 5.67094 3.84375 6.70781 3.825 7.62281C3.8175 8.115 3.81 8.62313 3.6825 8.92969C3.54469 9.26344 3.17906 9.645 2.82562 10.0144C2.20406 10.6613 1.5 11.3962 1.5 12.375C1.5 13.3538 2.20406 14.0878 2.82562 14.7356C3.17906 15.105 3.54469 15.4856 3.6825 15.8203C3.81 16.1269 3.8175 16.635 3.825 17.1272C3.83906 18.0422 3.85406 19.0791 4.575 19.8C5.29594 20.5209 6.33281 20.5359 7.24781 20.55C7.74 20.5575 8.24813 20.565 8.55469 20.6925C8.88844 20.8303 9.27 21.1959 9.63937 21.5494C10.2863 22.1709 11.0212 22.875 12 22.875C12.9788 22.875 13.7128 22.1709 14.3606 21.5494C14.73 21.1959 15.1106 20.8303 15.4453 20.6925C15.7519 20.565 16.26 20.5575 16.7522 20.55C17.6672 20.5359 18.7041 20.5209 19.425 19.8C20.1459 19.0791 20.1609 18.0422 20.175 17.1272C20.1825 16.635 20.19 16.1269 20.3175 15.8203C20.4553 15.4866 20.8209 15.105 21.1744 14.7356C21.7959 14.0887 22.5 13.3538 22.5 12.375C22.5 11.3962 21.7959 10.6622 21.1744 10.0144ZM12 18.375C11.7775 18.375 11.56 18.309 11.375 18.1854C11.19 18.0618 11.0458 17.8861 10.9606 17.6805C10.8755 17.475 10.8532 17.2488 10.8966 17.0305C10.94 16.8123 11.0472 16.6118 11.2045 16.4545C11.3618 16.2972 11.5623 16.19 11.7805 16.1466C11.9988 16.1032 12.225 16.1255 12.4305 16.2106C12.6361 16.2958 12.8118 16.44 12.9354 16.625C13.059 16.81 13.125 17.0275 13.125 17.25C13.125 17.5484 13.0065 17.8345 12.7955 18.0455C12.5845 18.2565 12.2984 18.375 12 18.375ZM12.75 13.8075V13.875C12.75 14.0739 12.671 14.2647 12.5303 14.4053C12.3897 14.546 12.1989 14.625 12 14.625C11.8011 14.625 11.6103 14.546 11.4697 14.4053C11.329 14.2647 11.25 14.0739 11.25 13.875V13.125C11.25 12.9261 11.329 12.7353 11.4697 12.5947C11.6103 12.454 11.8011 12.375 12 12.375C13.2403 12.375 14.25 11.5312 14.25 10.5C14.25 9.46875 13.2403 8.625 12 8.625C10.7597 8.625 9.75 9.46875 9.75 10.5V10.875C9.75 11.0739 9.67098 11.2647 9.53033 11.4053C9.38968 11.546 9.19891 11.625 9 11.625C8.80109 11.625 8.61032 11.546 8.46967 11.4053C8.32902 11.2647 8.25 11.0739 8.25 10.875V10.5C8.25 8.63906 9.93188 7.125 12 7.125C14.0681 7.125 15.75 8.63906 15.75 10.5C15.75 12.1294 14.46 13.4934 12.75 13.8075Z" fill="#179FBD"/>
</g>
<defs>
<clipPath id="clip0_4357_57034">
<rect width="24" height="24" fill="white"/>
</clipPath>
</defs>
</svg>
