<svg width="16" height="16" viewBox="0 0 16 16" fill="none" xmlns="http://www.w3.org/2000/svg">
<path d="M6.03105 0.728125C6.24043 1.125 6.49043 1.6125 6.5873 1.80625L6.76543 2.15625H9.26543C9.54043 1.6125 9.79043 1.125 9.9998 0.725L10.3748 0H5.65293L6.03105 0.728125ZM6.81543 2.97813C6.79668 3.06875 6.40293 5.2875 5.94043 7.90938L5.09668 12.6719C5.19668 12.9844 5.37168 13.2156 6.29355 14.3438C6.89043 15.075 7.41855 15.7125 7.46543 15.7625C7.50918 15.8125 7.61543 15.8844 7.69668 15.925C7.80293 15.9812 7.89355 16 8.0248 16C8.15918 16 8.24043 15.9781 8.35918 15.9156C8.49355 15.8438 8.68418 15.6219 9.63418 14.4688C10.3592 13.5906 10.7842 13.05 10.8342 12.9375C10.8811 12.8438 10.9154 12.7188 10.9186 12.6562C10.9186 12.5969 10.5436 10.4312 10.0842 7.84375C9.6248 5.25938 9.23418 3.06875 9.21855 2.97813L9.1873 2.8125H6.84668L6.81543 2.97813Z" fill="white"/>
</svg>
