<svg width="16" height="16" viewBox="0 0 16 16" fill="none" xmlns="http://www.w3.org/2000/svg">
<g clip-path="url(#clip0_4550_4749)">
<path d="M14 12.25V13.25C14 14.215 13.215 15 12.25 15H3.75C2.785 15 2 14.215 2 13.25V12.25C2 11.285 2.785 10.5 3.75 10.5H4.75C5.0265 10.5 5.25 10.7235 5.25 11C5.25 11.2765 5.0265 11.5 4.75 11.5H3.75C3.3365 11.5 3 11.8365 3 12.25V13.25C3 13.6635 3.3365 14 3.75 14H12.25C12.6635 14 13 13.6635 13 13.25V12.25C13 11.8365 12.6635 11.5 12.25 11.5H11.25C10.9735 11.5 10.75 11.2765 10.75 11C10.75 10.7235 10.9735 10.5 11.25 10.5H12.25C13.215 10.5 14 11.285 14 12.25ZM14 4.75V5.25C14 6.215 13.215 7 12.25 7H12V7.5C12 8.327 11.327 9 10.5 9H8.5V10.6975L9.1475 10.0505C9.343 9.855 9.659 9.855 9.8545 10.0505C10.05 10.246 10.05 10.562 9.8545 10.7575L8.617 11.9955C8.277 12.335 7.725 12.3355 7.385 11.9955L6.147 10.7575C5.9515 10.562 5.9515 10.246 6.147 10.0505C6.3425 9.855 6.6585 9.855 6.854 10.0505L7.5 10.6965V8.9995H5.5C4.673 8.9995 4 8.3265 4 7.4995V6.9995H3.75C2.785 6.9995 2 6.2145 2 5.2495V4.7495C2 3.785 2.785 3 3.75 3H5.25C6.215 3 7 3.785 7 4.75V5.25C7 6.215 6.215 7 5.25 7H5V7.5C5 7.7755 5.224 8 5.5 8H10.5C10.776 8 11 7.7755 11 7.5V7H10.75C9.785 7 9 6.215 9 5.25V4.75C9 3.785 9.785 3 10.75 3H12.25C13.215 3 14 3.785 14 4.75ZM5.25 6C5.6635 6 6 5.6635 6 5.25V4.75C6 4.3365 5.6635 4 5.25 4H3.75C3.3365 4 3 4.3365 3 4.75V5.25C3 5.6635 3.3365 6 3.75 6H5.25ZM13 4.75C13 4.3365 12.6635 4 12.25 4H10.75C10.3365 4 10 4.3365 10 4.75V5.25C10 5.6635 10.3365 6 10.75 6H12.25C12.6635 6 13 5.6635 13 5.25V4.75Z" fill="#001C22"/>
</g>
<defs>
<clipPath id="clip0_4550_4749">
<rect width="12" height="12" fill="white" transform="translate(2 3)"/>
</clipPath>
</defs>
</svg>
